# xmcd
#
# Track frame offsets: 
#        225
#        17779
#        32068
#        50709
#        65866
#        89237
#        99844
#        112956
#        132084
#        150165
#        167663
#
# Disc length: 2619 seconds
#
# Revision: 0
# Processed by: cddbd v1.5.1PL0 Copyright (c) Steve Scherf et al.
# Submitted via: ExactAudioCopy v0.95a5
#
DISCID=8c0a380b
DTITLE=The Horrors - The Horrors
DYEAR=2000
DGENRE=Lo-Fi Garage Rock
TTITLE0=Every Inch Of My Love
TTITLE1=The Next Train I See
TTITLE2=I Don't Need A Woman I Need A Nurse
TTITLE3=Dot Com Stomp
TTITLE4=Cold Blooded
TTITLE5=Looking For Action
TTITLE6=Hurt That Bird
TTITLE7=Widow's Peak
TTITLE8=Pick Myself Up
TTITLE9=Tragic Woman
TTITLE10=Back In The Cut
EXTD=
EXTT0=
EXTT1=
EXTT2=
EXTT3=
EXTT4=
EXTT5=
EXTT6=
EXTT7=
EXTT8=
EXTT9=
EXTT10=
PLAYORDER=
